<?xml version="1.0" encoding="UTF-8" standalone="no"?>
<!-- Created with Inkscape (http://www.inkscape.org/) -->

<svg
   xmlns:dc="http://purl.org/dc/elements/1.1/"
   xmlns:cc="http://creativecommons.org/ns#"
   xmlns:rdf="http://www.w3.org/1999/02/22-rdf-syntax-ns#"
   xmlns:svg="http://www.w3.org/2000/svg"
   xmlns="http://www.w3.org/2000/svg"
   xmlns:sodipodi="http://sodipodi.sourceforge.net/DTD/sodipodi-0.dtd"
   xmlns:inkscape="http://www.inkscape.org/namespaces/inkscape"
   width="210mm"
   height="297mm"
   viewBox="0 0 744.09448819 1052.3622047"
   id="svg2"
   version="1.1"
   inkscape:version="0.91 r13725"
   sodipodi:docname="file.svg">
  <defs
     id="defs4" />
  <sodipodi:namedview
     id="base"
     pagecolor="#ffffff"
     bordercolor="#666666"
     borderopacity="1.0"
     inkscape:pageopacity="0.0"
     inkscape:pageshadow="2"
     inkscape:zoom="1.979899"
     inkscape:cx="276.58523"
     inkscape:cy="931.48669"
     inkscape:document-units="px"
     inkscape:current-layer="layer1"
     showgrid="false"
     inkscape:window-width="1366"
     inkscape:window-height="705"
     inkscape:window-x="-8"
     inkscape:window-y="-8"
     inkscape:window-maximized="1" />
  <metadata
     id="metadata7">
    <rdf:RDF>
      <cc:Work
         rdf:about="">
        <dc:format>image/svg+xml</dc:format>
        <dc:type
           rdf:resource="http://purl.org/dc/dcmitype/StillImage" />
        <dc:title />
      </cc:Work>
    </rdf:RDF>
  </metadata>
  <g
     inkscape:label="Layer 1"
     inkscape:groupmode="layer"
     id="layer1">
    <g
       style="font-style:normal;font-weight:normal;font-size:40px;line-height:125%;font-family:sans-serif;letter-spacing:0px;word-spacing:0px;fill:#000000;fill-opacity:1;stroke:none;stroke-width:1px;stroke-linecap:butt;stroke-linejoin:miter;stroke-opacity:1"
       id="text3352">
      <path
         d="m 65.446424,26.022919 q -0.78125,0.15625 -0.78125,0.78125 0,0.78125 0.78125,0.625 0.78125,0.15625 0.78125,-0.625 0,-0.625 -0.78125,-0.78125 z m 0,2.1875 q -0.46875,0 -0.9375,-0.46875 -0.3125,-0.3125 -0.46875,-0.9375 0,-0.46875 0.46875,-1.09375 0.46875,-0.3125 0.9375,-0.3125 0.625,0 1.09375,0.3125 0.46875,0.46875 0.3125,1.09375 0.15625,0.625 -0.3125,0.9375 -0.3125,0.46875 -1.09375,0.46875 z m -0.46875,-12.1875 q -0.78125,0 -0.78125,0.78125 0,0.78125 0.78125,0.78125 0.78125,0 0.78125,-0.78125 0,-0.78125 -0.78125,-0.78125 z m 0,2.1875 q -0.46875,0.15625 -0.9375,-0.3125 -0.3125,-0.3125 -0.46875,-1.09375 0,-0.46875 0.46875,-0.9375 0.46875,-0.46875 0.9375,-0.46875 0.625,0 1.09375,0.46875 0.46875,0.3125 0.3125,0.9375 0,0.625 -0.46875,1.09375 -0.3125,0.46875 -0.9375,0.3125 z m -20.9375,-2.65625 q -0.625,0 -0.625,0.78125 0,0.78125 0.625,0.78125 0.78125,0 0.78125,-0.78125 0,-0.78125 -0.78125,-0.78125 z m 0,2.1875 q -0.625,0 -0.9375,-0.3125 -0.46875,-0.46875 -0.46875,-1.09375 0,-0.46875 0.46875,-0.9375 0.3125,-0.46875 0.9375,-0.46875 0.625,0 1.09375,0.46875 0.46875,0.3125 0.3125,0.78125 0,0.78125 -0.46875,1.25 -0.3125,0.3125 -0.9375,0.3125 z m -2.96875,1.71875 q -0.625,0 -0.78125,0.625 -0.15625,0.9375 0.78125,0.9375 0.78125,0.15625 0.625,-0.78125 0.15625,-0.78125 -0.625,-0.78125 z m 0,2.1875 q -0.625,0.15625 -1.09375,-0.3125 -0.46875,-0.3125 -0.46875,-1.09375 0,-0.46875 0.46875,-0.9375 0.46875,-0.46875 1.09375,-0.46875 0.625,0 0.9375,0.46875 0.46875,0.3125 0.46875,0.9375 0.15625,0.625 -0.46875,1.09375 -0.3125,0.46875 -0.9375,0.3125 z m -7.1875,4.375 q -0.78125,0.15625 -0.78125,0.78125 0,0.78125 0.78125,0.625 0.78125,0.15625 0.78125,-0.625 0,-0.625 -0.78125,-0.78125 z m 0,2.1875 q -0.46875,0 -0.9375,-0.46875 -0.3125,-0.3125 -0.46875,-0.9375 0,-0.46875 0.46875,-1.09375 0.46875,-0.3125 0.9375,-0.3125 0.46875,0 0.9375,0.3125 0.46875,0.46875 0.46875,1.09375 0,0.625 -0.46875,0.9375 -0.3125,0.46875 -0.9375,0.46875 z m -1.5625,11.40625 q -1.09375,-0.15625 -0.9375,0.9375 0.15625,0.46875 0.78125,0.46875 0.78125,0.15625 0.625,-0.625 0,-0.625 -0.46875,-0.78125 z m -0.3125,2.1875 q -0.625,0 -0.9375,-0.46875 -0.46875,-0.3125 -0.46875,-0.9375 0,-0.46875 0.46875,-1.09375 0.3125,-0.3125 0.9375,-0.3125 0.625,0 1.09375,0.3125 0.46875,0.46875 0.46875,1.09375 0.15625,0.625 -0.46875,0.9375 -0.46875,0.46875 -1.09375,0.46875 z m 31.40625,0.625 q 0,-2.8125 -2.1875,-5.15625 -1.09375,-1.25 -4.21875,-2.65625 -0.3125,0 -0.3125,-0.3125 0,-0.15625 0.15625,-0.3125 1.875,-1.5625 2.34375,-2.5 0.46875,-0.9375 0.46875,-2.34375 0,-1.71875 -0.625,-2.65625 -1.09375,0.15625 -2.5,0 -5.78125,-0.15625 -8.90625,-4.21875 -4.6875,0.3125 -7.1875,2.8125 -1.71875,1.71875 -1.71875,4.0625 0,1.71875 0.78125,2.8125 0.625,0.9375 2.34375,2.03125 0.15625,0.15625 0.15625,0.3125 0.15625,0.15625 -0.15625,0.3125 -6.40625,2.5 -6.5625,7.96875 0,3.59375 2.1875,5 2.34375,1.5625 8.4375,1.5625 l 6.40625,0.15625 q 6.71875,0.15625 9.0625,-1.71875 2.03125,-1.40625 2.03125,-5.15625 z m 2.03125,-9.0625 q 0.78125,0 0.78125,0.3125 0,0.3125 -1.09375,0.3125 -0.625,0.15625 -1.5625,-0.15625 l -2.34375,2.34375 q 2.8125,2.34375 2.96875,5.78125 0.15625,4.6875 -2.5,6.40625 -2.5,1.71875 -9.375,1.71875 l -6.40625,0 q -6.09375,0 -8.75,-1.71875 -2.5,-1.5625 -2.65625,-5 -0.3125,-4.375 2.96875,-7.1875 l -2.1875,-2.34375 q -0.625,0.3125 -1.5625,0.15625 -1.09375,0 -1.09375,-0.3125 0,-0.3125 0.78125,-0.3125 2.1875,0 2.1875,-2.34375 0.15625,-0.15625 0.15625,-0.3125 0.3125,0.15625 0.3125,0.9375 0.15625,0.78125 -0.15625,1.40625 l 2.5,2.34375 q 1.09375,-0.625 2.34375,-1.25 -3.28125,-2.1875 -2.8125,-5.78125 0.3125,-2.8125 2.8125,-4.6875 2.65625,-1.71875 6.40625,-2.1875 -0.625,-0.78125 -1.09375,-1.875 l 0.9375,-0.625 q 0.78125,1.40625 1.5625,2.34375 l 6.5625,-7.34375 7.5,6.09375 -2.96875,5 q 1.5625,0 2.5,-0.46875 l 0.3125,1.25 q -1.25,0.3125 -2.5,0.46875 0.625,1.09375 0.625,2.8125 0.15625,1.71875 -0.625,2.65625 -0.46875,1.09375 -2.03125,2.34375 1.40625,0.78125 2.34375,1.40625 l 2.65625,-2.5 q -0.3125,-0.625 -0.15625,-1.5625 0.15625,-0.78125 0.3125,-0.78125 0.15625,0.15625 0.15625,0.3125 0,2.34375 2.1875,2.34375 z m -19.84375,-0.3125 q 0,-0.15625 -0.15625,-0.3125 0.15625,-0.46875 0.3125,-0.46875 0.15625,0.15625 0.3125,0.15625 1.71875,1.25 3.59375,1.09375 1.71875,-0.15625 2.8125,-1.25 0.15625,0 0.3125,0 0.46875,0 0.3125,0.3125 0,0.15625 -0.15625,0.3125 -1.40625,1.5625 -3.59375,1.5625 -1.875,0 -3.75,-1.40625 z m 3.90625,14.0625 q -0.46875,0.15625 -0.9375,-0.3125 -0.3125,-0.3125 -0.46875,-1.09375 0,-0.625 0.46875,-1.09375 0.46875,-0.3125 0.9375,-0.3125 0.625,0 1.09375,0.3125 0.46875,0.625 0.46875,1.25 0,0.46875 -0.46875,0.9375 -0.46875,0.46875 -1.09375,0.3125 z m 0,-5.46875 q -0.46875,0 -0.9375,-0.46875 -0.46875,-0.46875 -0.46875,-1.25 0,-0.46875 0.46875,-0.9375 0.46875,-0.3125 0.9375,-0.3125 0.625,0 1.09375,0.46875 0.46875,0.46875 0.46875,0.9375 0.15625,0.625 -0.46875,1.09375 -0.46875,0.46875 -1.09375,0.46875 z m 3.125,-10.9375 q -0.46875,0.15625 -0.78125,-0.3125 -0.46875,-0.46875 -0.625,-1.25 0,-0.46875 0.46875,-0.9375 0.46875,-0.3125 1.09375,-0.3125 0.625,0 1.09375,0.3125 0.3125,0.3125 0.3125,0.9375 0.15625,0.9375 -0.3125,1.25 -0.46875,0.46875 -1.25,0.3125 z m -6.5625,0 q -0.625,0.15625 -1.09375,-0.3125 -0.46875,-0.46875 -0.46875,-1.25 0,-0.46875 0.46875,-0.9375 0.46875,-0.46875 1.25,-0.46875 0.46875,0 0.9375,0.46875 0.46875,0.3125 0.3125,0.9375 0,0.78125 -0.46875,1.25 -0.3125,0.46875 -0.9375,0.3125 z"
         style=""
         id="path3336" />
    </g>
    <path
       sodipodi:type="spiral"
       style="fill:none;fill-rule:evenodd;stroke:#000000;stroke-width:1px;stroke-linecap:butt;stroke-linejoin:miter;stroke-opacity:1"
       id="path3373"
       sodipodi:cx="102.53048"
       sodipodi:cy="34.633522"
       sodipodi:expansion="1"
       sodipodi:revolution="3"
       sodipodi:radius="29.364006"
       sodipodi:argument="-18.137197"
       sodipodi:t0="0"
       d="m 102.53048,34.633522 c 1.11424,0.962302 -0.74744,1.976743 -1.59941,1.851945 -2.308796,-0.338195 -2.886941,-3.221476 -2.10448,-5.050764 1.39964,-3.272168 5.60623,-3.951301 8.50212,-2.357016 4.24982,2.339678 5.04432,8.022305 2.60955,11.953474 -3.24517,5.239629 -10.449354,6.149393 -15.404829,2.862086 -6.23596,-4.136741 -7.260653,-12.8816 -3.114621,-18.856183 5.0214,-7.236021 15.31677,-8.375493 22.30754,-3.367157 8.23838,5.902152 9.49258,17.753758 3.61969,25.758893 -6.78048,9.242245 -20.191962,10.611165 -29.210248,3.872227 -10.247149,-7.65721 -11.730799,-22.631019 -4.124762,-32.661602 8.532824,-11.2527974 25.0707,-12.8511945 36.11296,-4.377297 12.25899,9.407631 13.97216,27.510849 4.62983,39.56431" />
    <path
       sodipodi:type="star"
       id="path3375"
       sodipodi:sides="5"
       sodipodi:cx="172.73609"
       sodipodi:cy="39.684285"
       sodipodi:r1="34.214958"
       sodipodi:r2="17.107477"
       sodipodi:arg1="0.54295114"
       sodipodi:arg2="1.1712697"
       inkscape:flatsided="false"
       inkscape:rounded="0"
       inkscape:randomized="0"
       d="m 202.03051,57.361954 -22.63992,-1.917488 -14.41449,17.563173 -5.17248,-22.12438 -21.1579,-8.281679 19.44315,-11.75613 1.3382,-22.6815325 17.18901,14.8586915 21.98494,-5.736278 -8.81976,20.939306 z"
       inkscape:transform-center-x="2.3979682"
       inkscape:transform-center-y="0.90149379" />
  </g>
</svg>
